<mxfile host="app.diagrams.net" modified="2024-04-25T13:24:46.150Z" agent="Mozilla/5.0 (Windows NT 10.0; Win64; x64) AppleWebKit/537.36 (KHTML, like Gecko) Chrome/124.0.0.0 Safari/537.36" etag="nMqGdncKDGcAWJsBXhTW" version="24.3.0" type="device" pages="2">
  <diagram name="Technologies" id="qeAG5nPs3FD4cw9WKKbb">
    <mxGraphModel dx="1647" dy="954" grid="1" gridSize="10" guides="1" tooltips="1" connect="1" arrows="1" fold="1" page="1" pageScale="1" pageWidth="827" pageHeight="1169" math="0" shadow="0">
      <root>
        <mxCell id="0" />
        <mxCell id="1" parent="0" />
        <mxCell id="prHDb3N5QVq9_a-O2LLw-15" style="edgeStyle=orthogonalEdgeStyle;rounded=0;orthogonalLoop=1;jettySize=auto;html=1;exitX=0.5;exitY=1;exitDx=0;exitDy=0;entryX=0.5;entryY=0;entryDx=0;entryDy=0;" parent="1" source="prHDb3N5QVq9_a-O2LLw-2" target="prHDb3N5QVq9_a-O2LLw-9" edge="1">
          <mxGeometry relative="1" as="geometry" />
        </mxCell>
        <mxCell id="prHDb3N5QVq9_a-O2LLw-2" value="Front - end" style="swimlane;whiteSpace=wrap;html=1;" parent="1" vertex="1">
          <mxGeometry x="245" y="40" width="390" height="320" as="geometry" />
        </mxCell>
        <mxCell id="prHDb3N5QVq9_a-O2LLw-5" value="" style="group" parent="prHDb3N5QVq9_a-O2LLw-2" vertex="1" connectable="0">
          <mxGeometry x="60" y="40" width="269" height="269" as="geometry" />
        </mxCell>
        <mxCell id="prHDb3N5QVq9_a-O2LLw-3" value="" style="whiteSpace=wrap;html=1;aspect=fixed;fillColor=#dae8fc;strokeColor=#6c8ebf;" parent="prHDb3N5QVq9_a-O2LLw-5" vertex="1">
          <mxGeometry width="269" height="269" as="geometry" />
        </mxCell>
        <mxCell id="prHDb3N5QVq9_a-O2LLw-4" value="&lt;b&gt;Type Script&lt;/b&gt;" style="text;html=1;align=center;verticalAlign=middle;whiteSpace=wrap;rounded=0;" parent="prHDb3N5QVq9_a-O2LLw-5" vertex="1">
          <mxGeometry x="94.5" width="80" height="30" as="geometry" />
        </mxCell>
        <mxCell id="prHDb3N5QVq9_a-O2LLw-6" value="React" style="rounded=0;whiteSpace=wrap;html=1;" parent="prHDb3N5QVq9_a-O2LLw-5" vertex="1">
          <mxGeometry x="74.5" y="50" width="120" height="60" as="geometry" />
        </mxCell>
        <mxCell id="prHDb3N5QVq9_a-O2LLw-7" value="Redux" style="rounded=0;whiteSpace=wrap;html=1;" parent="prHDb3N5QVq9_a-O2LLw-5" vertex="1">
          <mxGeometry x="74.5" y="130" width="120" height="60" as="geometry" />
        </mxCell>
        <mxCell id="prHDb3N5QVq9_a-O2LLw-8" value="Axios" style="rounded=0;whiteSpace=wrap;html=1;" parent="prHDb3N5QVq9_a-O2LLw-5" vertex="1">
          <mxGeometry x="74.5" y="200" width="120" height="60" as="geometry" />
        </mxCell>
        <mxCell id="prHDb3N5QVq9_a-O2LLw-9" value="Back - end" style="swimlane;whiteSpace=wrap;html=1;" parent="1" vertex="1">
          <mxGeometry x="240" y="480" width="400" height="360" as="geometry" />
        </mxCell>
        <mxCell id="prHDb3N5QVq9_a-O2LLw-10" value="" style="whiteSpace=wrap;html=1;aspect=fixed;fillColor=#d5e8d4;strokeColor=#82b366;" parent="prHDb3N5QVq9_a-O2LLw-9" vertex="1">
          <mxGeometry x="60" y="45" width="270" height="270" as="geometry" />
        </mxCell>
        <mxCell id="prHDb3N5QVq9_a-O2LLw-11" value="C#" style="text;html=1;align=center;verticalAlign=middle;whiteSpace=wrap;rounded=0;fontStyle=1" parent="prHDb3N5QVq9_a-O2LLw-9" vertex="1">
          <mxGeometry x="165" y="45" width="60" height="30" as="geometry" />
        </mxCell>
        <mxCell id="prHDb3N5QVq9_a-O2LLw-12" value="ASP.net" style="rounded=0;whiteSpace=wrap;html=1;" parent="prHDb3N5QVq9_a-O2LLw-9" vertex="1">
          <mxGeometry x="135" y="105" width="120" height="60" as="geometry" />
        </mxCell>
        <mxCell id="prHDb3N5QVq9_a-O2LLw-18" value="Entity Framework" style="rounded=0;whiteSpace=wrap;html=1;" parent="prHDb3N5QVq9_a-O2LLw-9" vertex="1">
          <mxGeometry x="135" y="200" width="120" height="60" as="geometry" />
        </mxCell>
        <mxCell id="prHDb3N5QVq9_a-O2LLw-19" style="edgeStyle=orthogonalEdgeStyle;rounded=0;orthogonalLoop=1;jettySize=auto;html=1;exitX=1;exitY=0.25;exitDx=0;exitDy=0;" parent="1" source="prHDb3N5QVq9_a-O2LLw-17" edge="1">
          <mxGeometry relative="1" as="geometry">
            <mxPoint x="240" y="620" as="targetPoint" />
          </mxGeometry>
        </mxCell>
        <mxCell id="prHDb3N5QVq9_a-O2LLw-17" value="&lt;font style=&quot;font-size: 20px;&quot;&gt;&lt;b&gt;Microsoft SQL&lt;/b&gt;&lt;/font&gt;" style="whiteSpace=wrap;html=1;aspect=fixed;" parent="1" vertex="1">
          <mxGeometry x="10" y="580" width="160" height="160" as="geometry" />
        </mxCell>
        <mxCell id="prHDb3N5QVq9_a-O2LLw-20" value="" style="endArrow=classic;html=1;rounded=0;entryX=1;entryY=0.75;entryDx=0;entryDy=0;" parent="1" target="prHDb3N5QVq9_a-O2LLw-17" edge="1">
          <mxGeometry width="50" height="50" relative="1" as="geometry">
            <mxPoint x="240" y="700" as="sourcePoint" />
            <mxPoint x="310" y="640" as="targetPoint" />
          </mxGeometry>
        </mxCell>
      </root>
    </mxGraphModel>
  </diagram>
  <diagram id="U8iVVAp1W9AaG_TtuMFs" name="Сторінка-2">
    <mxGraphModel dx="1647" dy="954" grid="1" gridSize="10" guides="1" tooltips="1" connect="1" arrows="1" fold="1" page="1" pageScale="1" pageWidth="827" pageHeight="1169" math="0" shadow="0">
      <root>
        <mxCell id="0" />
        <mxCell id="1" parent="0" />
        <mxCell id="ZBSbT3NL6iJnqFyPWyRj-1" value="" style="rounded=0;whiteSpace=wrap;html=1;" vertex="1" parent="1">
          <mxGeometry x="380" y="360" width="210" height="340" as="geometry" />
        </mxCell>
        <mxCell id="ZBSbT3NL6iJnqFyPWyRj-2" value="Register" style="text;html=1;align=center;verticalAlign=middle;resizable=0;points=[];autosize=1;strokeColor=none;fillColor=none;" vertex="1" parent="1">
          <mxGeometry x="450" y="380" width="70" height="30" as="geometry" />
        </mxCell>
        <mxCell id="ZBSbT3NL6iJnqFyPWyRj-3" value="Прізвище ім&#39;я" style="rounded=1;whiteSpace=wrap;html=1;" vertex="1" parent="1">
          <mxGeometry x="400" y="420" width="170" height="30" as="geometry" />
        </mxCell>
        <mxCell id="ZBSbT3NL6iJnqFyPWyRj-4" value="email" style="rounded=1;whiteSpace=wrap;html=1;" vertex="1" parent="1">
          <mxGeometry x="400" y="470" width="170" height="30" as="geometry" />
        </mxCell>
        <mxCell id="ZBSbT3NL6iJnqFyPWyRj-5" value="phone" style="rounded=1;whiteSpace=wrap;html=1;" vertex="1" parent="1">
          <mxGeometry x="400" y="520" width="170" height="30" as="geometry" />
        </mxCell>
        <mxCell id="ZBSbT3NL6iJnqFyPWyRj-6" value="password" style="rounded=1;whiteSpace=wrap;html=1;" vertex="1" parent="1">
          <mxGeometry x="400" y="570" width="170" height="30" as="geometry" />
        </mxCell>
        <mxCell id="ZBSbT3NL6iJnqFyPWyRj-7" value="" style="rounded=0;whiteSpace=wrap;html=1;" vertex="1" parent="1">
          <mxGeometry x="120" y="360" width="210" height="210" as="geometry" />
        </mxCell>
        <mxCell id="ZBSbT3NL6iJnqFyPWyRj-8" value="Login" style="text;html=1;align=center;verticalAlign=middle;resizable=0;points=[];autosize=1;strokeColor=none;fillColor=none;" vertex="1" parent="1">
          <mxGeometry x="200" y="370" width="50" height="30" as="geometry" />
        </mxCell>
        <mxCell id="ZBSbT3NL6iJnqFyPWyRj-9" value="email" style="rounded=1;whiteSpace=wrap;html=1;" vertex="1" parent="1">
          <mxGeometry x="140" y="410" width="170" height="30" as="geometry" />
        </mxCell>
        <mxCell id="ZBSbT3NL6iJnqFyPWyRj-10" value="password" style="rounded=1;whiteSpace=wrap;html=1;" vertex="1" parent="1">
          <mxGeometry x="140" y="460" width="170" height="30" as="geometry" />
        </mxCell>
        <mxCell id="ZBSbT3NL6iJnqFyPWyRj-11" value="confirm password" style="rounded=1;whiteSpace=wrap;html=1;" vertex="1" parent="1">
          <mxGeometry x="400" y="620" width="170" height="30" as="geometry" />
        </mxCell>
        <mxCell id="ZBSbT3NL6iJnqFyPWyRj-12" value="" style="rounded=0;whiteSpace=wrap;html=1;" vertex="1" parent="1">
          <mxGeometry x="630" y="360" width="210" height="450" as="geometry" />
        </mxCell>
        <mxCell id="ZBSbT3NL6iJnqFyPWyRj-13" value="Register volunteer" style="text;html=1;align=center;verticalAlign=middle;resizable=0;points=[];autosize=1;strokeColor=none;fillColor=none;" vertex="1" parent="1">
          <mxGeometry x="675" y="380" width="120" height="30" as="geometry" />
        </mxCell>
        <mxCell id="ZBSbT3NL6iJnqFyPWyRj-14" value="Прізвище ім&#39;я" style="rounded=1;whiteSpace=wrap;html=1;" vertex="1" parent="1">
          <mxGeometry x="650" y="420" width="170" height="30" as="geometry" />
        </mxCell>
        <mxCell id="ZBSbT3NL6iJnqFyPWyRj-15" value="email" style="rounded=1;whiteSpace=wrap;html=1;" vertex="1" parent="1">
          <mxGeometry x="650" y="470" width="170" height="30" as="geometry" />
        </mxCell>
        <mxCell id="ZBSbT3NL6iJnqFyPWyRj-16" value="phone" style="rounded=1;whiteSpace=wrap;html=1;" vertex="1" parent="1">
          <mxGeometry x="650" y="520" width="170" height="30" as="geometry" />
        </mxCell>
        <mxCell id="ZBSbT3NL6iJnqFyPWyRj-17" value="password" style="rounded=1;whiteSpace=wrap;html=1;" vertex="1" parent="1">
          <mxGeometry x="650" y="570" width="170" height="30" as="geometry" />
        </mxCell>
        <mxCell id="ZBSbT3NL6iJnqFyPWyRj-18" value="confirm password" style="rounded=1;whiteSpace=wrap;html=1;" vertex="1" parent="1">
          <mxGeometry x="650" y="620" width="170" height="30" as="geometry" />
        </mxCell>
        <mxCell id="ZBSbT3NL6iJnqFyPWyRj-19" value="upload cv" style="rounded=1;whiteSpace=wrap;html=1;" vertex="1" parent="1">
          <mxGeometry x="650" y="670" width="170" height="30" as="geometry" />
        </mxCell>
        <mxCell id="ZBSbT3NL6iJnqFyPWyRj-20" value="or" style="text;html=1;align=center;verticalAlign=middle;resizable=0;points=[];autosize=1;strokeColor=none;fillColor=none;" vertex="1" parent="1">
          <mxGeometry x="720" y="710" width="30" height="30" as="geometry" />
        </mxCell>
        <mxCell id="ZBSbT3NL6iJnqFyPWyRj-21" value="Short info" style="rounded=1;whiteSpace=wrap;html=1;" vertex="1" parent="1">
          <mxGeometry x="650" y="750" width="170" height="30" as="geometry" />
        </mxCell>
      </root>
    </mxGraphModel>
  </diagram>
</mxfile>
